<svg width="32" height="32" viewBox="0 0 32 32" fill="none" xmlns="http://www.w3.org/2000/svg">
<path d="M11.3333 13.3335C12.4379 13.3335 13.3333 12.4381 13.3333 11.3335C13.3333 10.2289 12.4379 9.3335 11.3333 9.3335C10.2287 9.3335 9.33331 10.2289 9.33331 11.3335C9.33331 12.4381 10.2287 13.3335 11.3333 13.3335Z" fill="white"/>
<path fill-rule="evenodd" clip-rule="evenodd" d="M11.3333 10.6667C10.9651 10.6667 10.6666 10.9651 10.6666 11.3333C10.6666 11.7015 10.9651 12 11.3333 12C11.7015 12 11.9999 11.7015 11.9999 11.3333C11.9999 10.9651 11.7015 10.6667 11.3333 10.6667ZM7.99994 11.3333C7.99994 9.49238 9.49232 8 11.3333 8C13.1742 8 14.6666 9.49238 14.6666 11.3333C14.6666 13.1743 13.1742 14.6667 11.3333 14.6667C9.49232 14.6667 7.99994 13.1743 7.99994 11.3333Z" fill="white"/>
<path fill-rule="evenodd" clip-rule="evenodd" d="M21.4782 12.0081C21.8799 12.052 22.2401 12.2758 22.4575 12.6165L28.6241 22.283C28.8211 22.5918 28.8824 22.9681 28.7935 23.3235L27.7935 27.3235C27.6512 27.8928 27.1533 28.3022 26.5672 28.3317L6.7339 29.3319C6.18306 29.3597 5.67198 29.0454 5.44815 28.5414C5.22432 28.0373 5.33394 27.4474 5.72394 27.0574L20.3906 12.3908C20.6764 12.105 21.0764 11.9643 21.4782 12.0081ZM10.0584 26.4942L25.4461 25.7182L26.0673 23.2334L21.1022 15.4504L10.0584 26.4942Z" fill="white"/>
<path fill-rule="evenodd" clip-rule="evenodd" d="M21.3334 13.3335L27.5 23L26.8902 23.1463L27.5 24L25.5 27L13 26.5L13.0139 26.4768L6.66675 28.0002L21.3334 13.3335Z" fill="white"/>
<path d="M25.3333 4H6.66667C5.19391 4 4 5.19391 4 6.66667V25.3333C4 26.8061 5.19391 28 6.66667 28H25.3333C26.8061 28 28 26.8061 28 25.3333V6.66667C28 5.19391 26.8061 4 25.3333 4Z" stroke="white" stroke-width="3" stroke-linecap="round" stroke-linejoin="round"/>
</svg>
