<svg width="24" height="24" viewBox="0 0 24 24" fill="none" xmlns="http://www.w3.org/2000/svg">
<path d="M17.5214 19.0278C16.8646 19.0278 16.2731 18.9108 15.7468 18.6769C15.225 18.4385 14.8112 18.0876 14.5053 17.6243C14.2039 17.161 14.0532 16.5897 14.0532 15.9105C14.0532 15.3257 14.1612 14.8422 14.3771 14.4598C14.593 14.0775 14.8876 13.7716 15.261 13.5422C15.6344 13.3128 16.0549 13.1396 16.5228 13.0226C16.9951 12.9012 17.4831 12.8134 17.9869 12.7595C18.5942 12.6965 19.0868 12.6403 19.4646 12.5908C19.8425 12.5368 20.1169 12.4558 20.2878 12.3479C20.4632 12.2354 20.5509 12.0622 20.5509 11.8283V11.7878C20.5509 11.2795 20.4002 10.8859 20.0989 10.6071C19.7975 10.3282 19.3634 10.1887 18.7966 10.1887C18.1984 10.1887 17.7238 10.3192 17.3729 10.5801C17.0266 10.841 16.7927 11.1491 16.6712 11.5045L14.3906 11.1806C14.5705 10.5508 14.8674 10.0245 15.2812 9.6017C15.6951 9.17437 16.2011 8.85499 16.7994 8.64358C17.3977 8.42766 18.0589 8.3197 18.7831 8.3197C19.2824 8.3197 19.7795 8.37818 20.2743 8.49513C20.7691 8.61209 21.2212 8.80551 21.6305 9.07541C22.0399 9.3408 22.3682 9.70291 22.6156 10.1617C22.8675 10.6206 22.9935 11.1941 22.9935 11.8823V18.8186H20.6454V17.3949H20.5644C20.416 17.6828 20.2068 17.9527 19.9369 18.2046C19.6715 18.452 19.3364 18.6522 18.9316 18.8051C18.5312 18.9535 18.0612 19.0278 17.5214 19.0278ZM18.1556 17.233C18.6459 17.233 19.071 17.1363 19.4309 16.9428C19.7907 16.7449 20.0674 16.484 20.2608 16.1601C20.4587 15.8363 20.5577 15.4832 20.5577 15.1008V13.8795C20.4812 13.9425 20.3508 14.001 20.1663 14.055C19.9864 14.1089 19.784 14.1562 19.5591 14.1967C19.3342 14.2371 19.1115 14.2731 18.8911 14.3046C18.6707 14.3361 18.4795 14.3631 18.3176 14.3856C17.9532 14.4351 17.6271 14.516 17.3392 14.6285C17.0513 14.7409 16.8241 14.8984 16.6577 15.1008C16.4913 15.2987 16.4081 15.5551 16.4081 15.87C16.4081 16.3198 16.5722 16.6594 16.9006 16.8889C17.229 17.1183 17.6473 17.233 18.1556 17.233Z" fill="white"/>
<path d="M2.67196 18.8186H0L4.86485 5H7.95514L12.8267 18.8186H10.1548L6.46397 7.83389H6.35602L2.67196 18.8186ZM2.75967 13.4005H10.0468V15.4112H2.75967V13.4005Z" fill="white"/>
</svg>
