<svg width="24" height="24" viewBox="0 0 24 24" fill="none" xmlns="http://www.w3.org/2000/svg">
<path d="M10.3719 20.6497C10.4551 19.3277 10.7716 18.0689 11.2809 16.9144C9.97807 16.7935 8.76849 16.3478 7.73538 15.6595C7.2298 15.3227 7.19483 14.6196 7.59997 14.167C8.00514 13.7143 8.69668 13.6873 9.22061 13.9949C10.0361 14.4736 10.9854 14.7476 12 14.7476C12.1939 14.7476 12.3851 14.7376 12.5732 14.7181C14.4497 12.2386 17.3527 10.5791 20.6497 10.3719C19.8861 6.28965 16.3039 3.2 12 3.2C7.13989 3.2 3.2 7.13989 3.2 12C3.2 16.3039 6.28965 19.8861 10.3719 20.6497ZM19.7256 12.6996C16.168 13.3636 13.3636 16.168 12.6996 19.7256L19.7256 12.6996ZM23 12C23 12.1845 22.9955 12.3678 22.9865 12.55L12.55 22.9865C12.3678 22.9955 12.1845 23 12 23C5.92486 23 1 18.0751 1 12C1 5.92486 5.92486 1 12 1C18.0751 1 23 5.92486 23 12ZM9.8 9.8C9.8 10.7112 9.06127 11.45 8.15 11.45C7.23873 11.45 6.5 10.7112 6.5 9.8C6.5 8.88873 7.23873 8.15 8.15 8.15C9.06127 8.15 9.8 8.88873 9.8 9.8ZM17.5 9.8C17.5 10.7112 16.7612 11.45 15.85 11.45C14.9388 11.45 14.2 10.7112 14.2 9.8C14.2 8.88873 14.9388 8.15 15.85 8.15C16.7612 8.15 17.5 8.88873 17.5 9.8Z" fill="white"/>
</svg>
