<svg width="16" height="16" viewBox="0 0 16 16" fill="none" xmlns="http://www.w3.org/2000/svg">
<path d="M7.33366 7.33329V5.33329C7.33366 4.9651 7.63214 4.66663 8.00033 4.66663C8.36852 4.66663 8.66699 4.9651 8.66699 5.33329V7.33329H10.667C11.0352 7.33329 11.3337 7.63177 11.3337 7.99996C11.3337 8.36815 11.0352 8.66663 10.667 8.66663H8.66699V10.6666C8.66699 11.0348 8.36852 11.3333 8.00033 11.3333C7.63214 11.3333 7.33366 11.0348 7.33366 10.6666V8.66663H5.33366C4.96547 8.66663 4.66699 8.36815 4.66699 7.99996C4.66699 7.63177 4.96547 7.33329 5.33366 7.33329H7.33366Z" fill="white"/>
<rect x="2.00065" y="1.99992" width="12" height="12" rx="2.66667" stroke="white" stroke-width="1.33333"/>
</svg>
