<svg width="24" height="24" viewBox="0 0 24 24" fill="none" xmlns="http://www.w3.org/2000/svg">
<g clip-path="url(#clip0_64_7072)">
<path d="M12 14.5C13.3807 14.5 14.5 13.3807 14.5 12C14.5 10.6193 13.3807 9.5 12 9.5C10.6193 9.5 9.5 10.6193 9.5 12C9.5 13.3807 10.6193 14.5 12 14.5Z" stroke="white" stroke-width="1.66667" stroke-linecap="round" stroke-linejoin="round"/>
<path d="M18.1666 14.5002C18.0557 14.7515 18.0226 15.0303 18.0716 15.3007C18.1206 15.571 18.2495 15.8204 18.4416 16.0168L18.4916 16.0668C18.6465 16.2216 18.7695 16.4054 18.8534 16.6078C18.9372 16.8101 18.9804 17.027 18.9804 17.246C18.9804 17.465 18.9372 17.6819 18.8534 17.8842C18.7695 18.0866 18.6465 18.2704 18.4916 18.4252C18.3368 18.5801 18.153 18.7031 17.9507 18.7869C17.7483 18.8708 17.5314 18.914 17.3124 18.914C17.0934 18.914 16.8765 18.8708 16.6742 18.7869C16.4719 18.7031 16.288 18.5801 16.1333 18.4252L16.0833 18.3752C15.8869 18.183 15.6374 18.0542 15.3671 18.0052C15.0967 17.9561 14.8179 17.9892 14.5666 18.1002C14.3201 18.2058 14.1099 18.3812 13.9618 18.6048C13.8138 18.8284 13.7343 19.0903 13.7333 19.3585V19.5002C13.7333 19.9422 13.5577 20.3661 13.2451 20.6787C12.9325 20.9912 12.5086 21.1668 12.0666 21.1668C11.6246 21.1668 11.2006 20.9912 10.8881 20.6787C10.5755 20.3661 10.3999 19.9422 10.3999 19.5002V19.4252C10.3935 19.1493 10.3042 18.8818 10.1437 18.6574C9.98317 18.433 9.75886 18.2621 9.49992 18.1668C9.24857 18.0559 8.96976 18.0228 8.69943 18.0718C8.4291 18.1208 8.17965 18.2497 7.98325 18.4418L7.93325 18.4918C7.77846 18.6468 7.59465 18.7697 7.39232 18.8536C7.18999 18.9375 6.97311 18.9806 6.75409 18.9806C6.53506 18.9806 6.31818 18.9375 6.11585 18.8536C5.91352 18.7697 5.72971 18.6468 5.57492 18.4918C5.41996 18.337 5.29703 18.1532 5.21315 17.9509C5.12928 17.7486 5.08611 17.5317 5.08611 17.3127C5.08611 17.0936 5.12928 16.8768 5.21315 16.6744C5.29703 16.4721 5.41996 16.2883 5.57492 16.1335L5.62492 16.0835C5.81703 15.8871 5.94591 15.6376 5.99492 15.3673C6.04394 15.097 6.01085 14.8182 5.89992 14.5668C5.79428 14.3204 5.61888 14.1101 5.39531 13.9621C5.17173 13.814 4.90974 13.7346 4.64159 13.7335H4.49992C4.05789 13.7335 3.63397 13.5579 3.32141 13.2453C3.00885 12.9328 2.83325 12.5089 2.83325 12.0668C2.83325 11.6248 3.00885 11.2009 3.32141 10.8883C3.63397 10.5758 4.05789 10.4002 4.49992 10.4002H4.57492C4.85075 10.3937 5.11826 10.3044 5.34267 10.1439C5.56708 9.98342 5.73802 9.75911 5.83325 9.50016C5.94418 9.24882 5.97727 8.97 5.92826 8.69967C5.87924 8.42934 5.75037 8.1799 5.55825 7.9835L5.50825 7.9335C5.35329 7.77871 5.23036 7.59489 5.14649 7.39256C5.06261 7.19023 5.01944 6.97336 5.01944 6.75433C5.01944 6.5353 5.06261 6.31843 5.14649 6.1161C5.23036 5.91377 5.35329 5.72995 5.50825 5.57516C5.66304 5.4202 5.84685 5.29727 6.04918 5.2134C6.25152 5.12952 6.46839 5.08635 6.68742 5.08635C6.90644 5.08635 7.12332 5.12952 7.32565 5.2134C7.52798 5.29727 7.7118 5.4202 7.86659 5.57516L7.91659 5.62516C8.11298 5.81728 8.36243 5.94615 8.63276 5.99517C8.90309 6.04418 9.18191 6.01109 9.43325 5.90016H9.49992C9.74639 5.79453 9.9566 5.61913 10.1047 5.39555C10.2527 5.17198 10.3322 4.90999 10.3333 4.64183V4.50016C10.3333 4.05814 10.5088 3.63421 10.8214 3.32165C11.134 3.00909 11.5579 2.8335 11.9999 2.8335C12.4419 2.8335 12.8659 3.00909 13.1784 3.32165C13.491 3.63421 13.6666 4.05814 13.6666 4.50016V4.57516C13.6677 4.84332 13.7471 5.10531 13.8952 5.32888C14.0432 5.55246 14.2534 5.72786 14.4999 5.8335C14.7513 5.94443 15.0301 5.97752 15.3004 5.9285C15.5707 5.87948 15.8202 5.75061 16.0166 5.5585L16.0666 5.5085C16.2214 5.35354 16.4052 5.2306 16.6075 5.14673C16.8098 5.06286 17.0267 5.01969 17.2458 5.01969C17.4648 5.01969 17.6817 5.06286 17.884 5.14673C18.0863 5.2306 18.2701 5.35354 18.4249 5.5085C18.5799 5.66328 18.7028 5.8471 18.7867 6.04943C18.8706 6.25176 18.9137 6.46864 18.9137 6.68766C18.9137 6.90669 18.8706 7.12357 18.7867 7.3259C18.7028 7.52823 18.5799 7.71204 18.4249 7.86683L18.3749 7.91683C18.1828 8.11323 18.0539 8.36268 18.0049 8.63301C17.9559 8.90333 17.989 9.18215 18.0999 9.4335V9.50016C18.2056 9.74664 18.381 9.95684 18.6045 10.1049C18.8281 10.253 19.0901 10.3324 19.3583 10.3335H19.4999C19.9419 10.3335 20.3659 10.5091 20.6784 10.8217C20.991 11.1342 21.1666 11.5581 21.1666 12.0002C21.1666 12.4422 20.991 12.8661 20.6784 13.1787C20.3659 13.4912 19.9419 13.6668 19.4999 13.6668H19.4249C19.1568 13.6679 18.8948 13.7474 18.6712 13.8954C18.4476 14.0435 18.2722 14.2537 18.1666 14.5002Z" stroke="white" stroke-width="1.66667" stroke-linecap="round" stroke-linejoin="round"/>
</g>
<defs>
<clipPath id="clip0_64_7072">
<rect width="20" height="20" fill="white" transform="translate(2 2)"/>
</clipPath>
</defs>
</svg>
