<svg width="24" height="24" viewBox="0 0 24 24" fill="none" xmlns="http://www.w3.org/2000/svg">
<g clip-path="url(#clip0_64_6099)">
<path d="M12 14.5C13.3807 14.5 14.5 13.3807 14.5 12C14.5 10.6193 13.3807 9.5 12 9.5C10.6193 9.5 9.5 10.6193 9.5 12C9.5 13.3807 10.6193 14.5 12 14.5Z" stroke="#CDCDD0" stroke-width="1.66667" stroke-linecap="round" stroke-linejoin="round"/>
<path d="M18.1667 14.5002C18.0558 14.7515 18.0227 15.0303 18.0717 15.3007C18.1207 15.571 18.2496 15.8204 18.4417 16.0168L18.4917 16.0668C18.6467 16.2216 18.7696 16.4054 18.8535 16.6078C18.9373 16.8101 18.9805 17.027 18.9805 17.246C18.9805 17.465 18.9373 17.6819 18.8535 17.8842C18.7696 18.0866 18.6467 18.2704 18.4917 18.4252C18.3369 18.5801 18.1531 18.7031 17.9508 18.7869C17.7484 18.8708 17.5316 18.914 17.3125 18.914C17.0935 18.914 16.8766 18.8708 16.6743 18.7869C16.472 18.7031 16.2882 18.5801 16.1334 18.4252L16.0834 18.3752C15.887 18.183 15.6375 18.0542 15.3672 18.0052C15.0969 17.9561 14.8181 17.9892 14.5667 18.1002C14.3202 18.2058 14.11 18.3812 13.962 18.6048C13.8139 18.8284 13.7344 19.0903 13.7334 19.3585V19.5002C13.7334 19.9422 13.5578 20.3661 13.2452 20.6787C12.9327 20.9912 12.5087 21.1668 12.0667 21.1668C11.6247 21.1668 11.2008 20.9912 10.8882 20.6787C10.5756 20.3661 10.4 19.9422 10.4 19.5002V19.4252C10.3936 19.1493 10.3043 18.8818 10.1438 18.6574C9.98329 18.433 9.75899 18.2621 9.50004 18.1668C9.24869 18.0559 8.96988 18.0228 8.69955 18.0718C8.42922 18.1208 8.17977 18.2497 7.98337 18.4418L7.93337 18.4918C7.77859 18.6468 7.59477 18.7697 7.39244 18.8536C7.19011 18.9375 6.97323 18.9806 6.75421 18.9806C6.53518 18.9806 6.3183 18.9375 6.11597 18.8536C5.91364 18.7697 5.72983 18.6468 5.57504 18.4918C5.42008 18.337 5.29715 18.1532 5.21327 17.9509C5.1294 17.7486 5.08623 17.5317 5.08623 17.3127C5.08623 17.0936 5.1294 16.8768 5.21327 16.6744C5.29715 16.4721 5.42008 16.2883 5.57504 16.1335L5.62504 16.0835C5.81715 15.8871 5.94603 15.6376 5.99504 15.3673C6.04406 15.097 6.01097 14.8182 5.90004 14.5668C5.7944 14.3204 5.619 14.1101 5.39543 13.9621C5.17185 13.814 4.90986 13.7346 4.64171 13.7335H4.50004C4.05801 13.7335 3.63409 13.5579 3.32153 13.2453C3.00897 12.9328 2.83337 12.5089 2.83337 12.0668C2.83337 11.6248 3.00897 11.2009 3.32153 10.8883C3.63409 10.5758 4.05801 10.4002 4.50004 10.4002H4.57504C4.85087 10.3937 5.11838 10.3044 5.34279 10.1439C5.5672 9.98342 5.73814 9.75911 5.83337 9.50016C5.9443 9.24882 5.97739 8.97 5.92838 8.69967C5.87936 8.42934 5.75049 8.1799 5.55837 7.9835L5.50837 7.9335C5.35341 7.77871 5.23048 7.59489 5.14661 7.39256C5.06273 7.19023 5.01956 6.97336 5.01956 6.75433C5.01956 6.5353 5.06273 6.31843 5.14661 6.1161C5.23048 5.91377 5.35341 5.72995 5.50837 5.57516C5.66316 5.4202 5.84698 5.29727 6.04931 5.2134C6.25164 5.12952 6.46852 5.08635 6.68754 5.08635C6.90657 5.08635 7.12344 5.12952 7.32577 5.2134C7.5281 5.29727 7.71192 5.4202 7.86671 5.57516L7.91671 5.62516C8.11311 5.81728 8.36255 5.94615 8.63288 5.99517C8.90321 6.04418 9.18203 6.01109 9.43337 5.90016H9.50004C9.74652 5.79453 9.95672 5.61913 10.1048 5.39555C10.2528 5.17198 10.3323 4.90999 10.3334 4.64183V4.50016C10.3334 4.05814 10.509 3.63421 10.8215 3.32165C11.1341 3.00909 11.558 2.8335 12 2.8335C12.4421 2.8335 12.866 3.00909 13.1786 3.32165C13.4911 3.63421 13.6667 4.05814 13.6667 4.50016V4.57516C13.6678 4.84332 13.7472 5.10531 13.8953 5.32888C14.0434 5.55246 14.2536 5.72786 14.5 5.8335C14.7514 5.94443 15.0302 5.97752 15.3005 5.9285C15.5709 5.87948 15.8203 5.75061 16.0167 5.5585L16.0667 5.5085C16.2215 5.35354 16.4053 5.2306 16.6076 5.14673C16.81 5.06286 17.0268 5.01969 17.2459 5.01969C17.4649 5.01969 17.6818 5.06286 17.8841 5.14673C18.0864 5.2306 18.2703 5.35354 18.425 5.5085C18.58 5.66328 18.7029 5.8471 18.7868 6.04943C18.8707 6.25176 18.9139 6.46864 18.9139 6.68766C18.9139 6.90669 18.8707 7.12357 18.7868 7.3259C18.7029 7.52823 18.58 7.71204 18.425 7.86683L18.375 7.91683C18.1829 8.11323 18.0541 8.36268 18.005 8.63301C17.956 8.90333 17.9891 9.18215 18.1 9.4335V9.50016C18.2057 9.74664 18.3811 9.95684 18.6047 10.1049C18.8282 10.253 19.0902 10.3324 19.3584 10.3335H19.5C19.9421 10.3335 20.366 10.5091 20.6786 10.8217C20.9911 11.1342 21.1667 11.5581 21.1667 12.0002C21.1667 12.4422 20.9911 12.8661 20.6786 13.1787C20.366 13.4912 19.9421 13.6668 19.5 13.6668H19.425C19.1569 13.6679 18.8949 13.7474 18.6713 13.8954C18.4477 14.0435 18.2723 14.2537 18.1667 14.5002Z" stroke="#CDCDD0" stroke-width="1.66667" stroke-linecap="round" stroke-linejoin="round"/>
</g>
<defs>
<clipPath id="clip0_64_6099">
<rect width="20" height="20" fill="white" transform="translate(2 2)"/>
</clipPath>
</defs>
</svg>
