<svg width="14" height="14" viewBox="0 0 14 14" fill="none" xmlns="http://www.w3.org/2000/svg">
<g clip-path="url(#clip0_169_21350)">
<path fill-rule="evenodd" clip-rule="evenodd" d="M12.1422 10.3094C12.2023 9.85023 12.109 9.38405 11.8768 8.98333H11.8784C12.3259 8.86403 12.7214 8.60026 13.0036 8.23301C13.2858 7.86577 13.4387 7.41561 13.4387 6.95248C13.4387 6.48936 13.2858 6.0392 13.0036 5.67195C12.7214 5.30471 12.3259 5.04094 11.8784 4.92164C12.111 4.52077 12.2046 4.05426 12.1446 3.59468C12.0846 3.1351 11.8744 2.70824 11.5467 2.38051C11.219 2.05279 10.7921 1.84258 10.3325 1.78259C9.87296 1.72261 9.40644 1.81622 9.00558 2.04885C8.88627 1.60135 8.62251 1.20579 8.25526 0.923626C7.88802 0.641461 7.43786 0.488495 6.97473 0.488495C6.5116 0.488495 6.06145 0.641461 5.6942 0.923626C5.32695 1.20579 5.06319 1.60135 4.94389 2.04885C4.54302 1.81622 4.0765 1.72261 3.61693 1.78259C3.15735 1.84258 2.73049 2.05279 2.40276 2.38051C2.07503 2.70824 1.86482 3.1351 1.80484 3.59468C1.74486 4.05426 1.83846 4.52077 2.0711 4.92164C1.6236 5.04094 1.22804 5.30471 0.945873 5.67195C0.663709 6.0392 0.510742 6.48936 0.510742 6.95248C0.510742 7.41561 0.663709 7.86577 0.945873 8.23301C1.22804 8.60026 1.6236 8.86403 2.0711 8.98333C1.83846 9.38419 1.74486 9.85071 1.80484 10.3103C1.86482 10.7699 2.07503 11.1967 2.40276 11.5245C2.73049 11.8522 3.15735 12.0624 3.61693 12.1224C4.0765 12.1824 4.54302 12.0887 4.94389 11.8561C5.06319 12.3036 5.32695 12.6992 5.6942 12.9813C6.06145 13.2635 6.5116 13.4165 6.97473 13.4165C7.43786 13.4165 7.88802 13.2635 8.25526 12.9813C8.62251 12.6992 8.88627 12.3036 9.00558 11.8561C9.40642 12.0881 9.87265 12.1811 10.3318 12.1208C10.791 12.0605 11.2174 11.8503 11.5448 11.5227C11.8722 11.1951 12.0822 10.7686 12.1422 10.3094Z" fill="#0252FF"/>
<path d="M6.35958 7.89671C6.28147 7.97482 6.15483 7.97482 6.07673 7.89671L4.62316 6.44316C4.4409 6.26091 4.14542 6.26091 3.96316 6.44316L3.8846 6.52173C3.70234 6.70398 3.70234 6.99947 3.8846 7.18173L5.88816 9.18526C6.07041 9.36752 6.3659 9.36751 6.54815 9.18526L10.2017 5.53173C10.384 5.34947 10.384 5.05398 10.2017 4.87173L10.1231 4.79316C9.94088 4.61091 9.64539 4.61091 9.46314 4.79316L6.35958 7.89671Z" fill="white" stroke="white" stroke-width="0.266679"/>
</g>
<defs>
<clipPath id="clip0_169_21350">
<rect width="14" height="14" fill="white"/>
</clipPath>
</defs>
</svg>
