<svg width="20" height="20" viewBox="0 0 20 20" fill="none" xmlns="http://www.w3.org/2000/svg">
<path d="M2.5 5H4.16667H17.5" stroke="#EF6262" stroke-width="1.66667" stroke-linecap="round" stroke-linejoin="round"/>
<path d="M15.8333 4.99984V16.6665C15.8333 17.1085 15.6577 17.5325 15.3452 17.845C15.0326 18.1576 14.6087 18.3332 14.1667 18.3332H5.83332C5.3913 18.3332 4.96737 18.1576 4.65481 17.845C4.34225 17.5325 4.16666 17.1085 4.16666 16.6665V4.99984M6.66666 4.99984V3.33317C6.66666 2.89114 6.84225 2.46722 7.15481 2.15466C7.46737 1.8421 7.8913 1.6665 8.33332 1.6665H11.6667C12.1087 1.6665 12.5326 1.8421 12.8452 2.15466C13.1577 2.46722 13.3333 2.89114 13.3333 3.33317V4.99984" stroke="#EF6262" stroke-width="1.66667" stroke-linecap="round" stroke-linejoin="round"/>
<path d="M8.33334 9.1665V14.1665" stroke="#EF6262" stroke-width="1.66667" stroke-linecap="round" stroke-linejoin="round"/>
<path d="M11.6667 9.1665V14.1665" stroke="#EF6262" stroke-width="1.66667" stroke-linecap="round" stroke-linejoin="round"/>
</svg>
